<svg width="68" height="205" viewBox="0 0 68 205" xmlns="http://www.w3.org/2000/svg">
<path d="M0.00146484 204.081L33.7456 184.798L67.4897 204.081L67.4897 176.362L33.7456 157.08L0.00146363 176.362L0.00146484 204.081ZM59.0537 179.978L59.0537 190.824L32.5404 175.157L6.0272 190.824L6.0272 179.978L32.5404 164.311L59.0537 179.978Z" fill="url(#paint0_linear)"/>
<path d="M16.6426 14.7439L33.9511 25.0008L51.9007 14.7439L51.9007 -0.000398298L33.9511 10.2565L16.0016 -0.000396729L16.0016 14.7439L16.6426 14.7439ZM48.0544 6.41016L48.0544 12.1797L33.9511 20.5134L19.8479 12.1797L19.8479 6.41016L33.9511 14.7439L48.0544 6.41016Z" fill="url(#paint1_linear)"/>
<defs>
<linearGradient id="paint0_linear" x1="30.5821" y1="153.723" x2="30.5821" y2="206.766" gradientUnits="userSpaceOnUse">
<stop stop-color="#FFB800"/>
<stop offset="1" stop-color="#FF7A00"/>
</linearGradient>
<linearGradient id="paint1_linear" x1="32.2684" y1="-1.7862" x2="32.2684" y2="26.4294" gradientUnits="userSpaceOnUse">
<stop stop-color="#FFB800"/>
<stop offset="1" stop-color="#FF7A00"/>
</linearGradient>
</defs>
</svg>
